<mxfile host="app.diagrams.net" modified="2021-10-27T09:57:39.229Z" agent="5.0 (Windows NT 10.0; Win64; x64) AppleWebKit/537.36 (KHTML, like Gecko) Chrome/95.0.4638.54 Safari/537.36" etag="kYvI3NJC9bAkM5sacHLQ" version="15.5.9" type="github">
  <diagram id="C5RBs43oDa-KdzZeNtuy" name="Page-1">
    <mxGraphModel dx="1221" dy="692" grid="1" gridSize="10" guides="1" tooltips="1" connect="1" arrows="1" fold="1" page="1" pageScale="1" pageWidth="827" pageHeight="1169" math="0" shadow="0">
      <root>
        <mxCell id="WIyWlLk6GJQsqaUBKTNV-0" />
        <mxCell id="WIyWlLk6GJQsqaUBKTNV-1" parent="WIyWlLk6GJQsqaUBKTNV-0" />
        <mxCell id="0Bg7rwMXI-W_EAJYzKHJ-0" value="Selesai" style="strokeWidth=2;html=1;shape=mxgraph.flowchart.terminator;whiteSpace=wrap;fontStyle=0;fontFamily=Helvetica;" vertex="1" parent="WIyWlLk6GJQsqaUBKTNV-1">
          <mxGeometry x="309" y="814" width="80" height="40" as="geometry" />
        </mxCell>
        <mxCell id="0Bg7rwMXI-W_EAJYzKHJ-9" style="edgeStyle=orthogonalEdgeStyle;rounded=0;orthogonalLoop=1;jettySize=auto;html=1;exitX=0.5;exitY=1;exitDx=0;exitDy=0;exitPerimeter=0;entryX=0.5;entryY=0;entryDx=0;entryDy=0;" edge="1" parent="WIyWlLk6GJQsqaUBKTNV-1" source="0Bg7rwMXI-W_EAJYzKHJ-1" target="0Bg7rwMXI-W_EAJYzKHJ-3">
          <mxGeometry relative="1" as="geometry" />
        </mxCell>
        <mxCell id="0Bg7rwMXI-W_EAJYzKHJ-1" value="Mulai" style="strokeWidth=2;html=1;shape=mxgraph.flowchart.start_1;whiteSpace=wrap;fontStyle=0;fontColor=default;" vertex="1" parent="WIyWlLk6GJQsqaUBKTNV-1">
          <mxGeometry x="299" y="314" width="100" height="60" as="geometry" />
        </mxCell>
        <mxCell id="0Bg7rwMXI-W_EAJYzKHJ-16" value="" style="edgeStyle=orthogonalEdgeStyle;rounded=0;orthogonalLoop=1;jettySize=auto;html=1;fontFamily=Helvetica;fontColor=default;" edge="1" parent="WIyWlLk6GJQsqaUBKTNV-1" source="0Bg7rwMXI-W_EAJYzKHJ-2" target="0Bg7rwMXI-W_EAJYzKHJ-15">
          <mxGeometry relative="1" as="geometry" />
        </mxCell>
        <mxCell id="0Bg7rwMXI-W_EAJYzKHJ-2" value="Bagi bilangan dengan 2 menggunakan modulus" style="rounded=0;whiteSpace=wrap;html=1;absoluteArcSize=1;arcSize=14;strokeWidth=2;align=center;" vertex="1" parent="WIyWlLk6GJQsqaUBKTNV-1">
          <mxGeometry x="269" y="494" width="155" height="80" as="geometry" />
        </mxCell>
        <mxCell id="0Bg7rwMXI-W_EAJYzKHJ-12" style="edgeStyle=orthogonalEdgeStyle;rounded=0;orthogonalLoop=1;jettySize=auto;html=1;exitX=0.5;exitY=1;exitDx=0;exitDy=0;entryX=0.5;entryY=0;entryDx=0;entryDy=0;fontFamily=Helvetica;" edge="1" parent="WIyWlLk6GJQsqaUBKTNV-1" source="0Bg7rwMXI-W_EAJYzKHJ-3" target="0Bg7rwMXI-W_EAJYzKHJ-2">
          <mxGeometry relative="1" as="geometry" />
        </mxCell>
        <mxCell id="0Bg7rwMXI-W_EAJYzKHJ-3" value="Masukan Angka" style="shape=parallelogram;html=1;strokeWidth=2;perimeter=parallelogramPerimeter;whiteSpace=wrap;rounded=1;arcSize=12;size=0.23;" vertex="1" parent="WIyWlLk6GJQsqaUBKTNV-1">
          <mxGeometry x="274" y="404" width="150" height="60" as="geometry" />
        </mxCell>
        <mxCell id="0Bg7rwMXI-W_EAJYzKHJ-18" value="" style="edgeStyle=orthogonalEdgeStyle;rounded=0;orthogonalLoop=1;jettySize=auto;html=1;fontFamily=Helvetica;fontColor=default;" edge="1" parent="WIyWlLk6GJQsqaUBKTNV-1" source="0Bg7rwMXI-W_EAJYzKHJ-15" target="0Bg7rwMXI-W_EAJYzKHJ-17">
          <mxGeometry relative="1" as="geometry" />
        </mxCell>
        <mxCell id="0Bg7rwMXI-W_EAJYzKHJ-24" value="" style="edgeStyle=orthogonalEdgeStyle;rounded=0;orthogonalLoop=1;jettySize=auto;html=1;fontFamily=Helvetica;fontColor=default;" edge="1" parent="WIyWlLk6GJQsqaUBKTNV-1" source="0Bg7rwMXI-W_EAJYzKHJ-15" target="0Bg7rwMXI-W_EAJYzKHJ-23">
          <mxGeometry relative="1" as="geometry" />
        </mxCell>
        <mxCell id="0Bg7rwMXI-W_EAJYzKHJ-15" value="Apakah sisa&amp;nbsp;&lt;br&gt;bagi = 0" style="rhombus;whiteSpace=wrap;html=1;rounded=0;strokeWidth=2;arcSize=14;" vertex="1" parent="WIyWlLk6GJQsqaUBKTNV-1">
          <mxGeometry x="295.25" y="604" width="102.5" height="100" as="geometry" />
        </mxCell>
        <mxCell id="0Bg7rwMXI-W_EAJYzKHJ-28" style="edgeStyle=orthogonalEdgeStyle;rounded=0;orthogonalLoop=1;jettySize=auto;html=1;fontFamily=Helvetica;fontColor=default;" edge="1" parent="WIyWlLk6GJQsqaUBKTNV-1" source="0Bg7rwMXI-W_EAJYzKHJ-17">
          <mxGeometry relative="1" as="geometry">
            <mxPoint x="369" y="814" as="targetPoint" />
            <Array as="points">
              <mxPoint x="549" y="804" />
              <mxPoint x="369" y="804" />
            </Array>
          </mxGeometry>
        </mxCell>
        <mxCell id="0Bg7rwMXI-W_EAJYzKHJ-17" value="Angka Genap" style="shape=parallelogram;perimeter=parallelogramPerimeter;whiteSpace=wrap;html=1;fixedSize=1;rounded=0;strokeWidth=2;arcSize=14;" vertex="1" parent="WIyWlLk6GJQsqaUBKTNV-1">
          <mxGeometry x="439" y="624" width="120" height="60" as="geometry" />
        </mxCell>
        <mxCell id="0Bg7rwMXI-W_EAJYzKHJ-20" value="Ya" style="text;html=1;align=center;verticalAlign=middle;resizable=0;points=[];autosize=1;strokeColor=none;fillColor=none;fontFamily=Helvetica;fontColor=default;" vertex="1" parent="WIyWlLk6GJQsqaUBKTNV-1">
          <mxGeometry x="419" y="634" width="30" height="20" as="geometry" />
        </mxCell>
        <mxCell id="0Bg7rwMXI-W_EAJYzKHJ-26" value="" style="edgeStyle=orthogonalEdgeStyle;rounded=0;orthogonalLoop=1;jettySize=auto;html=1;fontFamily=Helvetica;fontColor=default;" edge="1" parent="WIyWlLk6GJQsqaUBKTNV-1" source="0Bg7rwMXI-W_EAJYzKHJ-23" target="0Bg7rwMXI-W_EAJYzKHJ-0">
          <mxGeometry relative="1" as="geometry" />
        </mxCell>
        <mxCell id="0Bg7rwMXI-W_EAJYzKHJ-23" value="Angka Ganjil" style="shape=parallelogram;perimeter=parallelogramPerimeter;whiteSpace=wrap;html=1;fixedSize=1;rounded=0;strokeWidth=2;arcSize=14;" vertex="1" parent="WIyWlLk6GJQsqaUBKTNV-1">
          <mxGeometry x="289" y="734" width="120" height="60" as="geometry" />
        </mxCell>
        <mxCell id="0Bg7rwMXI-W_EAJYzKHJ-25" value="Tidak" style="text;html=1;align=center;verticalAlign=middle;resizable=0;points=[];autosize=1;strokeColor=none;fillColor=none;fontFamily=Helvetica;fontColor=default;" vertex="1" parent="WIyWlLk6GJQsqaUBKTNV-1">
          <mxGeometry x="357.75" y="714" width="40" height="20" as="geometry" />
        </mxCell>
      </root>
    </mxGraphModel>
  </diagram>
</mxfile>
